<?xml version="1.0" encoding="UTF-8"?>
<!DOCTYPE svg PUBLIC "-//W3C//DTD SVG 1.1//EN" "http://www.w3.org/Graphics/SVG/1.1/DTD/svg11.dtd">
<!-- Creator: CorelDRAW -->
<svg xmlns="http://www.w3.org/2000/svg" xml:space="preserve" width="2.552in" height="8.48415in" style="shape-rendering:geometricPrecision; text-rendering:geometricPrecision; image-rendering:optimizeQuality; fill-rule:evenodd; clip-rule:evenodd"
viewBox="0 0 2.552 8.48415"
 xmlns:xlink="http://www.w3.org/1999/xlink">
 <defs>
  <style type="text/css">
   <![CDATA[
    .fil13 {fill:black}
    .fil10 {fill:#0777A4}
    .fil26 {fill:#0778A4}
    .fil22 {fill:#185557}
    .fil0 {fill:#314F5D}
    .fil16 {fill:#392315}
    .fil32 {fill:#3D1C1A}
    .fil4 {fill:#421511}
    .fil30 {fill:#441408}
    .fil31 {fill:#4E1D0D}
    .fil24 {fill:#4F1815}
    .fil21 {fill:#51B09C}
    .fil29 {fill:#661100}
    .fil19 {fill:#666666}
    .fil8 {fill:#6D5453}
    .fil11 {fill:#852F00}
    .fil25 {fill:#AF0992}
    .fil6 {fill:#B64B1F}
    .fil12 {fill:#C8302F}
    .fil5 {fill:#ECA16C}
    .fil2 {fill:#EF8253}
    .fil9 {fill:#F5A66E}
    .fil28 {fill:#F75E4C}
    .fil27 {fill:#F7878A}
    .fil1 {fill:#F9B680}
    .fil15 {fill:#F9CD44}
    .fil14 {fill:#FACE45}
    .fil7 {fill:#FAF9F9}
    .fil33 {fill:#FB5544}
    .fil17 {fill:#FBCE44}
    .fil20 {fill:#FFAAC1}
    .fil23 {fill:#FFC2D2}
    .fil3 {fill:#FFFEFD}
    .fil18 {fill:white}
   ]]>
  </style>
 </defs>
 
  <!--<g id="maleSvg"  style="visibility:hidden">
  <g id="palm" style="visibility:hidden;"></g>
  <g id="burkha" style="visibility:hidden;">
   <g id="burkhaLight"></g>
   <g id="burkhaDark"></g>
  </g>
   <path id="pant" class="fil0" d="M0.875496 7.86392c0.11,0.031 0.111,0.026 0.212,-0.008 0.175,-0.1 0.101,-0.143 0.101,-0.287 -0.013,-0.235 -0.035,-0.478 -0.033,-0.712 0,-0.049 -0.007,-0.062 -0.009,-0.101 -0.002,-0.032 0,-0.07 0,-0.102 0,-0.049 -0.007,-0.062 -0.009,-0.101 -0.004,-0.078 0.005,-0.148 0.009,-0.212l0.015 -0.621c0.008,-0.067 0.015,-0.141 0.018,-0.202 0.011,-0.213 0.068,-0.625 0.068,-0.796 0.073,0.006 0.058,0.066 0.067,0.136 0.024,0.168 0.145,1.011 0.145,1.093 0,0.073 -0.002,0.146 0.006,0.206 0.01,0.073 0.002,0.696 0.002,0.829 0,0.077 -0.009,0.119 -0.009,0.195l0 0.416c0,0.075 -0.009,0.123 -0.009,0.203l0.111 0.075c0.138,0.01 0.08,0.035 0.22,-0.017 0.017,-0.021 0.098,-0.068 0.102,-0.151 0.004,-0.08 0.007,-0.174 -0.006,-0.249 -0.011,-0.074 -0.009,-0.245 -0.022,-0.36 -0.003,-0.03 -0.005,-0.08 -0.009,-0.118l-0.041 -0.469c0,-0.167 0.024,-0.319 0.026,-0.484 0.002,-0.24 0.02,-0.494 0.026,-0.737 0.016,-0.191 0.009,-0.541 0.026,-0.738 0.013,-0.162 0.016,-0.332 0.016,-0.505l-1.263 0.001c0,0.172 0.011,0.325 0.017,0.496l0.017 0.365c0.001,0.05 0.009,0.07 0.009,0.127 -0.001,0.122 0.018,0.285 0.017,0.365 0,0.05 0.001,0.084 0.006,0.121 0.009,0.07 0.006,0.172 0.011,0.243 0.006,0.075 0.022,0.162 0.025,0.238 0.006,0.124 0.043,0.358 0.043,0.466 0,0.094 -0.009,0.154 -0.009,0.246 0,0.197 0.009,0.584 -0.014,0.757 -0.009,0.064 -0.003,0.182 -0.003,0.252 0,0.06 0.008,0.056 0.041,0.087 0.03,0.028 0.048,0.034 0.078,0.055l0.003 0.002 -0.001 -0.004z"/>
   <path id="face" class="fil1" d="M0.765496 1.00892c-0.037,-0.051 -0.043,-0.052 -0.085,-0.104 -0.048,0.004 -0.071,0.031 -0.076,0.078 -0.008,0.072 0.042,0.173 0.092,0.213 0.042,0.033 0.059,0.028 0.103,0.049 0,0.119 -0.013,0.145 0.108,0.265 0.054,0.054 0.144,0.128 0.223,0.152 0.126,0.033 0.135,0.026 0.254,-0.002 0.053,-0.026 0.155,-0.106 0.198,-0.148 0.08,-0.079 0.09,-0.114 0.09,-0.266 0.092,-0.008 0.155,-0.069 0.185,-0.137 0.021,-0.046 0.047,-0.137 0,-0.184 -0.022,-0.021 -0.027,-0.018 -0.067,-0.018 -0.033,0.029 -0.052,0.034 -0.091,0.073 0.023,-0.19 0.133,-0.411 -0.141,-0.496 -0.276,-0.086 -0.558,-0.099 -0.781,0.059 -0.09,0.064 -0.012,0.357 -0.013,0.467l0.001 0 0 -0.001z"/>
   <g id="facialDetail">
    <path id="nose" class="fil2" d="M1.3245 1.29792c-0.118,0.029 -0.057,0.018 -0.167,-0.003 0.012,0.032 0.04,0.06 0.083,0.06 0.047,0.001 0.068,-0.027 0.084,-0.058l0 0.001z"/>
    <g id="eyes">
     <path id="eyesLight" class="fil3" d="M1.5655 1.10792c-0.045,0.083 -0.217,0.06 -0.233,-0.01 0.015,-0.057 0.22,-0.048 0.233,0.01zm-0.654 0.001c0.045,0.083 0.217,0.06 0.233,-0.01 -0.015,-0.057 -0.22,-0.048 -0.233,0.01z"/>
     <path id="eyesDark" class="fil4" d="M1.5405 1.07892l-0.061 -0.016c0.021,0.019 0.016,0.059 -0.005,0.069 -0.05,0.012 -0.078,-0.021 -0.052,-0.067 -0.046,-0.001 -0.062,0.012 -0.09,0.031 0.018,-0.04 0.061,-0.071 0.126,-0.066 0.06,0.005 0.095,0.039 0.124,0.067l-0.041 -0.018 -0.001 0zm-0.227 -0.133l0.013 0.05c0.116,-0.066 0.156,-0.053 0.282,-0.013 -0.026,-0.038 -0.074,-0.076 -0.134,-0.081 -0.068,-0.007 -0.115,0.028 -0.162,0.045l0 -0.001 0.001 0zm-0.454 0.042c0.097,-0.043 0.197,-0.057 0.284,0.007l0.017 -0.043c-0.089,-0.074 -0.242,-0.068 -0.301,0.036zm0.077 0.093l0.061 -0.016c-0.021,0.019 -0.016,0.059 0.005,0.069 0.05,0.012 0.078,-0.021 0.052,-0.067 0.046,-0.001 0.062,0.012 0.09,0.031 -0.018,-0.04 -0.061,-0.071 -0.126,-0.066 -0.06,0.005 -0.095,0.039 -0.124,0.067l0.041 -0.018 0.001 0z"/>
    </g>
    <g id="lips">
     <path id="lipsLight" class="fil5" d="M1.4465 1.37992c-0.019,0 -0.034,0.015 -0.034,0.034 0,0.019 0.015,0.034 0.034,0.034 0.019,0 0.034,-0.015 0.034,-0.034 0,-0.019 -0.015,-0.034 -0.034,-0.034zm-0.389 0c0.019,0 0.034,0.015 0.034,0.034 0,0.019 -0.015,0.034 -0.034,0.034 -0.019,0 -0.034,-0.015 -0.034,-0.034 0,-0.019 0.015,-0.034 0.034,-0.034z"/>
     <path id="lipsMedium" class="fil6" d="M1.0375 1.41792l0.431 0c-0.07,0.046 -0.12,0.107 -0.232,0.106 -0.065,-0.001 -0.109,-0.036 -0.197,-0.106l-0.001 0 -0.001 0z"/>
     <path id="lips_0" class="fil7" d="M1.1245 1.41792l0.257 0c0.002,0.006 0.003,0.012 0.003,0.019 0,0.034 -0.03,0.063 -0.073,0.077 -0.011,0.004 -0.023,0.006 -0.036,0.008 -0.008,0.001 -0.015,0.001 -0.023,0.001 -0.073,0 -0.131,-0.039 -0.131,-0.086 0,-0.007 0.001,-0.012 0.003,-0.019l0 0.001 0 -0.001z"/>
    </g>
    <path id="specs"  style="visibility:hidden;" class="fil8" d="M0.792496 1.00292c0.176,0.002 0.72,0.006 0.896,0.004l-0.041 0.204c-0.107,0 -0.221,0 -0.328,0.003l-0.059 -0.166 -0.03 0 -0.06 0.164c-0.107,-0.003 -0.228,-0.002 -0.334,-0.001l-0.046 -0.208 0.002 0zm0.858 0.041c-0.101,-0.007 -0.259,-0.004 -0.355,0.004l0.05 0.141c0.075,-0.002 0.201,-0.003 0.276,-0.003l0.03 -0.142 -0.001 0zm-0.819 -0.004c0.101,-0.007 0.273,-0.003 0.369,0.004l-0.052 0.143c-0.075,-0.002 -0.208,-0.001 -0.282,-0.001l-0.035 -0.145 0 -0.001z"/>
   </g>
   <path id="neck" class="fil9" d="M0.978496 1.93992c0.038,0.056 0.18,0.114 0.279,0.116 0.06,0.001 0.109,-0.011 0.158,-0.035 0.057,-0.027 0.083,-0.064 0.122,-0.082 -0.012,-0.008 -0.003,-0.002 -0.016,-0.009 -0.003,-0.001 -0.013,-0.006 -0.017,-0.008 -0.097,-0.046 -0.119,-0.154 -0.119,-0.264 -0.119,0.028 -0.128,0.035 -0.254,0.002 0,0.077 -0.008,0.128 -0.033,0.177 -0.023,0.044 -0.065,0.088 -0.118,0.101l-0.001 0.001 -0.001 0.001z"/>
   <path id="foot" class="fil1" d="M0.875496 7.86392c-0.009,0.11 -0.107,0.203 -0.176,0.259 -0.031,0.026 -0.104,0.07 -0.094,0.123 0.009,0.057 0.213,0.138 0.296,0.019 0.032,-0.046 0.041,-0.073 0.088,-0.132 0.038,-0.049 0.097,-0.041 0.118,-0.102 0.028,-0.082 -0.013,-0.094 -0.02,-0.174 -0.102,0.034 -0.102,0.039 -0.212,0.008l0 0 0 -0.001zm0.687 0.009c-0.002,0.077 -0.045,0.087 -0.007,0.169 0.014,0.029 0.032,0.036 0.059,0.051 0.041,0.024 0.032,0.014 0.06,0.049 0.083,0.102 0.086,0.208 0.248,0.178 0.099,-0.018 0.184,-0.07 0.09,-0.151 -0.02,-0.017 -0.043,-0.034 -0.061,-0.048 -0.062,-0.048 -0.169,-0.157 -0.169,-0.265 -0.14,0.051 -0.082,0.026 -0.22,0.017l0 0z"/>
   <path id="arm" class="fil1" d="M2.0265 2.90092c0.024,-0.018 0.221,-0.065 0.261,-0.069 0.006,0.06 0.014,0.1 0.028,0.156 0.083,0.344 0.032,0.819 0.004,1.171 -0.003,0.036 0.019,0.117 0.024,0.148 0.015,0.03 0.054,0.133 0.038,0.176 -0.004,0.018 -0.011,0.042 -0.021,0.061 -0.029,0.062 -0.085,0.105 -0.135,0.129 -0.039,0.019 -0.048,0.02 -0.05,0 -0.001,-0.012 -0.01,-0.032 0.018,-0.062 0.017,-0.019 0.036,-0.036 0.046,-0.058 0.012,-0.025 0,-0.07 -0.008,-0.101 -0.007,-0.027 -0.014,-0.065 -0.041,-0.054 -0.028,0.011 -0.084,0.103 -0.116,0.063 -0.017,-0.027 0.059,-0.142 0.077,-0.19 0.019,-0.053 0.034,-0.054 0.028,-0.115 -0.016,-0.16 -0.04,-0.289 -0.053,-0.447 -0.008,-0.093 -0.014,-0.225 -0.01,-0.319 0.002,-0.031 0.01,-0.083 0.009,-0.099 -0.004,-0.073 -0.096,-0.353 -0.098,-0.39l-0.001 0.001 0 -0.001zm-1.5 0c-0.024,-0.018 -0.221,-0.065 -0.261,-0.069 -0.006,0.06 -0.014,0.1 -0.028,0.156 -0.083,0.344 -0.032,0.819 -0.004,1.171 0.003,0.036 -0.019,0.117 -0.024,0.148 -0.015,0.03 -0.054,0.133 -0.038,0.176 0.004,0.018 0.011,0.042 0.021,0.061 0.029,0.062 0.085,0.105 0.135,0.129 0.039,0.019 0.048,0.02 0.05,0 0.001,-0.012 0.01,-0.032 -0.018,-0.062 -0.017,-0.019 -0.036,-0.036 -0.046,-0.058 -0.012,-0.025 0,-0.07 0.008,-0.101 0.007,-0.027 0.014,-0.065 0.041,-0.054 0.028,0.011 0.084,0.103 0.116,0.063 0.017,-0.027 -0.059,-0.142 -0.077,-0.19 -0.019,-0.053 -0.034,-0.054 -0.028,-0.115 0.016,-0.16 0.04,-0.289 0.053,-0.447 0.008,-0.093 0.014,-0.225 0.01,-0.319 -0.002,-0.031 -0.01,-0.083 -0.009,-0.099 0.004,-0.073 0.096,-0.353 0.098,-0.39l0.001 0.001 0 -0.001z"/>
   <path id="shirt" class="fil10" d="M1.8845 2.66992l-0.009 -0.016 0.009 0.016zm-1.619 0.203c0.04,-0.001 0.241,0.027 0.266,0.043l0.039 0 0.068 -0.254c0,0.119 0,0.237 0,0.356 0,0.121 -0.009,0.221 -0.009,0.348l0 0.534c-0.002,0.028 -0.028,0.138 0.006,0.15l1.264 0.006c0.045,0.01 0.021,-0.04 0.02,-0.072 -0.004,-0.2 -0.018,-0.419 -0.017,-0.611l-0.017 -0.339c-0.009,-0.107 0,-0.253 0,-0.364l0.086 0.246c0.022,-0.01 0.009,-0.008 0.043,-0.009 0.037,-0.021 0.197,-0.04 0.252,-0.047 0.009,-0.002 0.029,-0.004 0.051,-0.004 0,-0.055 -0.024,-0.129 -0.033,-0.179 -0.026,-0.127 -0.083,-0.415 -0.133,-0.503 -0.021,-0.036 -0.073,-0.084 -0.117,-0.095 -0.03,-0.008 -0.095,-0.009 -0.18,-0.033l-0.237 -0.077c-0.028,-0.011 -0.052,-0.024 -0.08,-0.031 -0.039,0.018 -0.065,0.055 -0.122,0.082 -0.049,0.024 -0.097,0.036 -0.158,0.035 -0.097,-0.002 -0.241,-0.06 -0.279,-0.116 -0.094,0.058 -0.185,0.077 -0.301,0.115 -0.058,0.019 -0.11,0.029 -0.165,0.046 -0.177,0.056 -0.157,0.163 -0.22,0.416 -0.015,0.059 -0.027,0.112 -0.041,0.172 -0.011,0.051 -0.037,0.13 -0.038,0.175 0.026,0.001 0.031,0.004 0.051,0.008l0.001 0.001 0 0.001z"/>
   <g id="hairStyle">
    <path id="shortHair"  class="fil4" d="M0.680496 0.904921c0.042,0.052 0.063,0.139 0.1,0.19 0.001,-0.128 -0.015,-0.253 -0.015,-0.375 0,-0.07 0.02,-0.13 0.06,-0.16 0.062,-0.044 0.109,-0.006 0.163,0.022 0.241,0.12 0.292,-0.088 0.556,-0.006 0.274,0.085 0.111,0.332 0.143,0.47 0.039,-0.039 0.071,-0.111 0.104,-0.141 0.014,-0.06 0.121,-0.384 -0.06,-0.399 0.029,-0.061 0.001,-0.132 -0.058,-0.18 -0.112,-0.09 -0.486,-0.124 -0.646,-0.083 -0.135,0.034 -0.239,0.102 -0.304,0.204 -0.085,0.133 -0.043,0.265 -0.043,0.456l-0.001 0 0.001 0.002z"/>
    <path id="longHair"  style="visibility:hidden;" class="fil11" d="M1.1605 0.232921c-0.022,-0.033 -0.032,-0.048 -0.043,-0.094 -0.06,0.044 -0.035,0.111 -0.06,0.111 -0.034,0 -0.044,-0.012 -0.057,-0.036 -0.012,-0.023 -0.026,-0.046 -0.027,-0.074 -0.081,0.022 -0.013,0.168 -0.128,0.178 -0.001,-0.032 -0.01,-0.066 -0.017,-0.094 -0.057,0.038 -0.085,0.164 -0.085,0.263 -0.009,-0.014 0,0.013 -0.011,-0.023 -0.007,-0.02 -0.004,-0.004 -0.006,-0.028 -0.098,0.026 -0.048,0.401 -0.034,0.466 0.009,0.043 0.025,0.067 0.043,0.102 0.008,0.015 0.014,0.027 0.023,0.045l0.028 0.048c0,-0.098 -0.019,-0.404 -0.012,-0.436 0.045,-0.211 0.214,-0.077 0.269,-0.059 0.169,0.056 0.262,-0.052 0.368,-0.044 0.08,0.006 0.13,0.01 0.187,0.041 0.13,0.071 0.109,0.161 0.094,0.293 -0.004,0.038 -0.016,0.113 -0.016,0.154 0.039,-0.026 0.077,-0.098 0.104,-0.143 0.039,-0.065 0.049,-0.172 0.049,-0.256 0,-0.053 -0.026,-0.098 -0.026,-0.22 -0.028,0.01 -0.007,0 -0.032,0.027 -0.015,0.016 -0.018,0.021 -0.036,0.032 0.001,-0.031 0.028,-0.224 -0.026,-0.263 -0.004,0.043 -0.022,0.059 -0.026,0.102l-0.077 0c-0.037,-0.055 -0.014,-0.007 -0.028,-0.082 -0.005,-0.025 -0.02,-0.064 -0.04,-0.078 -0.005,0.052 -0.017,0.079 -0.051,0.102 -0.121,-0.028 -0.162,-0.175 -0.212,-0.212 -0.015,0.066 -0.066,0.143 -0.119,0.178l0.001 0 0.003 0z"/>
   </g>
   <g id="Helmet" style="visibility:hidden;">
    <path id="innerHair" class="fil4" d="M0.619496 0.903921c0.045,0.052 0.07,0.139 0.111,0.19 0.001,-0.128 -0.017,-0.253 -0.017,-0.375 0,-0.07 0.128,-0.109 0.173,-0.138 0.069,-0.044 0.015,-0.026 0.075,0 0.267,0.121 0.323,-0.087 0.616,-0.005 0.303,0.086 0.206,0.354 0.241,0.493 0.043,-0.039 0.034,-0.103 0.071,-0.132 0.015,-0.06 0.026,-0.402 -0.154,-0.424 0.033,-0.061 -0.043,-0.107 -0.109,-0.154 -0.125,-0.091 -0.436,-0.135 -0.612,-0.094 -0.149,0.034 -0.168,0.103 -0.241,0.205 -0.094,0.133 -0.153,0.243 -0.153,0.435l-0.001 -0.001z"/>
    <path id="helmateBody" class="fil12" d="M1.2305 0.213921c0.409,0 0.637,0.233 0.671,0.61 -0.137,0.074 -0.401,0.118 -0.667,0.117 -0.242,-0.001 -0.484,-0.04 -0.633,-0.116 0.023,-0.356 0.216,-0.611 0.629,-0.611zm0.67 0.61c0,0.004 0,0.008 -0.001,0.012 -0.026,0.479 -0.282,0.948 -0.628,0.948 -0.346,0 -0.644,-0.375 -0.67,-0.807 -0.001,-0.009 0.001,-0.14 0,-0.149 0.124,0.363 0.26,0.59 0.66,0.59 0.388,0 0.576,-0.316 0.639,-0.592l0 -0.001 0 -0.001z"/>
    <path id="helmetEye" class="fil13" d="M1.9015 0.806921c-0.026,0.356 -0.189,0.609 -0.64,0.609 -0.441,0 -0.614,-0.26 -0.662,-0.607 0.293,0.187 1.082,0.162 1.302,-0.002zm-1.223 0.096c0.552,0.112 0.624,0.122 1.164,-0.007 -0.048,0.248 -0.15,0.472 -0.587,0.477 -0.321,0.004 -0.575,-0.214 -0.577,-0.47z"/>
    <path id="helmetLight" class="fil14" d="M0.966496 1.61492c0.247,0.11 0.364,0.118 0.611,0.002 -0.245,0.178 -0.412,0.146 -0.611,-0.002zm0.125 -1.405c0.031,-0.018 0.069,-0.026 0.114,-0.022l0.018 0.669 -0.114 0 -0.017 -0.646 -0.001 -0.001zm0.315 0c-0.032,-0.018 -0.07,-0.026 -0.115,-0.022l0.018 0.669 0.114 0 -0.017 -0.646 0 -0.001zm-0.635 0.384l0.085 -0.064c0.002,0.101 0.012,0.123 0.055,0.214 -0.086,-0.052 -0.096,-0.055 -0.14,-0.15l0 0.001 0 -0.001zm0.947 0.001l-0.089 -0.064c0.004,0.101 -0.006,0.123 -0.043,0.214 0.083,-0.052 0.094,-0.054 0.132,-0.149l0 -0.001zm-0.756 0.832c0.247,0.11 0.364,0.118 0.611,0.002 -0.245,0.178 -0.412,0.146 -0.611,-0.002zm0.003 0.108c0.247,0.11 0.364,0.118 0.611,0.002 -0.245,0.178 -0.412,0.146 -0.611,-0.002z"/>
   </g>
   <g id="drivingSuit" style="visibility:hidden;">
    <path id="drivingLight" class="fil15" d="M1.8245 7.65092c0,0.076 0.018,0.149 0.018,0.228l-0.326 0c0,-0.081 -0.026,-0.153 -0.026,-0.229 0.113,-0.014 0.221,-0.007 0.334,0.001zm-1.063 0c0,0.076 -0.018,0.149 -0.018,0.228l0.326 0c0,-0.081 0.026,-0.153 0.026,-0.229 -0.113,-0.014 -0.221,-0.007 -0.334,0.001zm1.575 -3.415l-0.198 0.004c0.008,-0.052 -0.008,-0.145 -0.003,-0.196 0.082,0.01 0.175,-0.019 0.249,0.001 -0.014,0.084 -0.018,0.153 -0.049,0.191l0.001 0zm-2.129 -0.001l0.216 0.004c-0.008,-0.052 0.009,-0.145 0.002,-0.196 -0.09,0.01 -0.191,-0.019 -0.273,0.001 0.016,0.084 0.021,0.153 0.054,0.191l0.001 0zm1.025 1.862c0.018,-0.311 0.028,-0.615 0.047,-0.926l0.015 -0.041 0.052 0.963 0.431 0.072c-0.024,-0.696 -0.039,-1.445 -0.112,-1.878l-0.769 -0.009c-0.07,0.215 -0.086,1.684 -0.098,1.891l0.435 -0.073 -0.001 0.001zm-0.352 -4.102c-0.111,0.026 -0.425,0.09 -0.514,0.169 0.194,0.375 0.238,1.442 0.245,1.89 0.119,-0.024 0.519,-0.003 0.667,-0.002 0.223,0.001 0.448,0.001 0.671,0.004 -0.002,-0.259 0.043,-1.635 0.213,-1.893 -0.032,-0.045 -0.171,-0.078 -0.254,-0.106l-0.214 -0.06c-0.272,-0.03 -0.551,-0.011 -0.813,0l0 -0.001 -0.001 -0.001zm1.377 1.264c-0.036,-0.122 -0.107,-0.161 -0.157,-0.227 -0.043,-0.056 -0.023,-0.177 -0.013,-0.253 0.004,-0.032 0.004,-0.058 0.019,-0.082 0.019,0.04 0.049,0.08 0.074,0.125 0.044,0.081 0.128,0.291 0.126,0.377 -0.001,0.037 -0.021,0.049 -0.048,0.06l-0.001 0zm-1.951 0.001c0.036,-0.122 0.107,-0.161 0.157,-0.227 0.043,-0.056 0.023,-0.177 0.013,-0.253 -0.004,-0.032 -0.004,-0.058 -0.019,-0.082 -0.019,0.04 -0.049,0.08 -0.073,0.125 -0.044,0.081 -0.128,0.291 -0.126,0.377 0.001,0.037 0.022,0.049 0.048,0.06l-0.001 0 0.001 0z"/>
    <path id="drivingDark" class="fil16" d="M0.630496 4.10292c-0.094,0.622 -0.039,2.013 0.046,2.959 -0.004,0.134 -0.045,0.563 0.069,0.602l0.015 -0.001c0,-0.004 0,-0.008 0,-0.011 0.113,-0.009 0.221,-0.015 0.334,-0.001 0,0.005 0,0.01 0,0.015 0.085,0.003 0.089,-0.303 0.097,-0.345 0.037,-0.174 -0.01,-1.113 0.018,-1.208l0.001 -0.011 -0.413 0.07c0.012,-0.208 0.027,-1.676 0.098,-1.891l0.769 0.009c0.074,0.434 0.089,1.182 0.112,1.878l-0.408 -0.068 0.001 0.016c0.028,0.095 -0.019,1.034 0.018,1.208 0.009,0.043 0.012,0.357 0.101,0.344 0,-0.006 0,-0.01 0,-0.016 0.113,-0.014 0.221,-0.007 0.334,0.001 0,0.004 0,0.009 0,0.012l0.01 0.001c0.115,-0.038 0.074,-0.468 0.069,-0.602 0.085,-0.946 0.141,-2.336 0.046,-2.959l-0.012 -0.047 0.003 -0.003c-0.22,-0.003 -0.442,-0.003 -0.662,-0.003 -0.121,0 -0.405,-0.014 -0.573,-0.007 -0.027,0.002 -0.05,0.004 -0.067,0.008l0.004 0.004 -0.012 0.047 0 0 0.002 -0.001zm1.44 -0.765c0.021,-0.138 -0.03,-0.234 -0.068,-0.359l0 -0.002c0.011,-0.122 0.025,-0.243 0.042,-0.364 0.002,-0.01 0.003,-0.02 0.005,-0.03 0.018,-0.115 0.047,-0.299 0.102,-0.402l0 0c0.003,-0.009 0.004,-0.014 0.011,-0.02 0.065,-0.006 0.136,0.095 0.141,0.164 0.004,0.056 0.008,0.086 0.016,0.14 0.023,0.145 0.014,0.268 0.069,0.397 0.033,0.077 0.068,0.205 0.092,0.293 0.003,0.156 -0.019,0.345 -0.045,0.532 -0.021,0.144 -0.026,0.276 -0.023,0.361 0.002,0.038 0.026,0.079 -0.015,0.081 -0.008,0 -0.017,-0.001 -0.024,-0.001 0,-0.023 0.001,-0.046 0.001,-0.069 -0.076,-0.02 -0.154,0.01 -0.235,0 0,0.022 0,0.044 0,0.066 -0.023,-0.003 -0.056,-0.009 -0.069,-0.015 -0.026,-0.011 0.001,-0.043 -0.001,-0.067 0.004,-0.252 -0.038,-0.439 0.002,-0.707l-0.001 0.002zm0.188 -0.078c-0.036,-0.122 -0.107,-0.161 -0.157,-0.227 -0.043,-0.056 -0.023,-0.177 -0.013,-0.253 0.004,-0.032 0.004,-0.058 0.019,-0.082 0.019,0.04 0.049,0.08 0.074,0.125 0.044,0.081 0.128,0.291 0.126,0.377 -0.001,0.037 -0.021,0.049 -0.048,0.06l-0.001 0zm-1.394 -1.289c0.013,0.04 0.013,0.096 0.139,0.153 0.071,0.032 0.14,0.038 0.226,0.047 0.002,0.118 -0.004,0.61 0.019,0.688l0.064 0.002c0.008,-0.105 0,-0.237 -0.001,-0.344l0 -0.327c0.014,-0.058 0.088,-0.011 0.206,-0.073 0.059,-0.03 0.111,-0.07 0.111,-0.155 -0.027,-0.055 -0.048,-0.047 -0.09,-0.079 -0.001,-0.007 -0.014,-0.07 -0.015,-0.071 -0.004,-0.002 -0.113,0.089 -0.262,0.094 -0.137,0.004 -0.195,-0.063 -0.247,-0.1l-0.032 0.073c-0.033,0.033 -0.072,0.017 -0.116,0.092l-0.002 0.001 0 -0.001zm-0.378 2.074c0.013,-0.21 0.032,-0.453 -0.006,-0.707 -0.021,-0.14 0.027,-0.256 0.065,-0.385 -0.029,-0.258 -0.069,-0.576 -0.179,-0.789 0.001,-0.001 0.002,-0.002 0.004,-0.003l0 0 0.002 -0.002 0 0 0 0 0 0c-0.063,0 -0.121,0.099 -0.125,0.166 -0.004,0.056 -0.008,0.086 -0.016,0.14 -0.023,0.145 -0.014,0.268 -0.068,0.397 -0.033,0.077 -0.068,0.205 -0.092,0.293 -0.003,0.156 0.02,0.345 0.046,0.532 0.021,0.144 0.026,0.276 0.023,0.361 -0.001,0.038 -0.026,0.079 0.015,0.081l0.013 0c-0.005,-0.022 0,-0.064 -0.002,-0.074 0.082,-0.02 0.171,0.008 0.261,-0.001 0,0.023 -0.002,0.046 -0.002,0.069 0.018,-0.003 0.047,-0.007 0.059,-0.012 0.026,-0.011 -0.001,-0.043 0.001,-0.067l0.001 0.001zm-0.178 -0.784c0.036,-0.122 0.107,-0.161 0.157,-0.227 0.043,-0.056 0.023,-0.177 0.013,-0.253 -0.004,-0.032 -0.004,-0.058 -0.019,-0.082 -0.019,0.04 -0.049,0.08 -0.073,0.125 -0.044,0.081 -0.128,0.291 -0.126,0.377 0.001,0.037 0.022,0.049 0.048,0.06l-0.001 0 0.001 0z"/>
   </g>
   <g id="gloves" style="visibility:hidden;">
    <path id="gloveDark" class="fil12" d="M2.3525 4.30592l0.014 -0.099c-0.01,-0.01 -0.022,-0.018 -0.036,-0.023l-0.205 -0.01c-0.003,0.059 0.007,0.085 0.013,0.116 -0.032,0.04 -0.061,0.08 -0.086,0.123 0,0.032 -0.021,0.229 0.04,0.217 0.018,-0.004 0.021,-0.027 0.024,-0.065l0.006 -0.07c0.004,-0.019 0.009,-0.025 0.02,-0.01 0.026,0.05 0.041,0.106 0.042,0.168 0,0.043 0.004,0.048 -0.024,0.078 0.005,0.039 0.017,0.042 0.06,0.026 0.017,0.026 0.049,0.018 0.071,-0.018 0.06,0.009 0.063,-0.009 0.093,-0.054 0.033,-0.015 0.046,-0.016 0.044,-0.079 -0.004,-0.12 -0.003,-0.174 -0.077,-0.301l0.001 0.002 0 -0.001zm-2.146 0.003l-0.016 -0.099c0.01,-0.01 0.022,-0.018 0.036,-0.023l0.205 -0.013c0.004,0.059 -0.006,0.085 -0.012,0.116 0.033,0.039 0.062,0.079 0.088,0.122 0.001,0.032 0.025,0.229 -0.036,0.218 -0.018,-0.003 -0.021,-0.026 -0.025,-0.064l-0.007 -0.07c-0.004,-0.019 -0.01,-0.024 -0.02,-0.01 -0.026,0.05 -0.039,0.106 -0.039,0.169 0,0.043 -0.004,0.048 0.025,0.078 -0.004,0.039 -0.017,0.042 -0.06,0.026 -0.016,0.027 -0.049,0.018 -0.071,-0.017 -0.059,0.01 -0.064,-0.009 -0.094,-0.052 -0.033,-0.015 -0.046,-0.016 -0.045,-0.078 0.002,-0.12 0,-0.174 0.072,-0.302l-0.001 0 0 -0.001z"/>
    <path id="gloveLight" class="fil17" d="M2.1245 4.19492c0,0.022 0.004,0.051 0.007,0.058l0.152 0.015c0.016,0.002 0.026,-0.011 0.031,-0.026l0 0c0.006,-0.015 -0.01,-0.03 -0.026,-0.032l-0.163 -0.016 -0.001 0.001zm-1.693 -0.001c0.001,0.026 -0.005,0.043 -0.007,0.059l-0.151 0.018c-0.016,0.002 -0.026,-0.01 -0.032,-0.026l0 0c-0.006,-0.015 0.01,-0.03 0.026,-0.032l0.163 -0.018 0 -0.001 0.001 0zm1.941 0.198c-0.058,0.01 -0.119,0.014 -0.185,0.011l0.031 0.108c0.081,0 0.104,0.006 0.18,-0.022 -0.005,-0.049 -0.005,-0.052 -0.026,-0.097l-0.001 0 0.001 0zm-0.09 -0.167c-0.008,-0.001 -0.014,0.005 -0.015,0.012 -0.001,0.008 0.005,0.014 0.012,0.015 0.008,0.001 0.014,-0.005 0.015,-0.012 0.001,-0.008 -0.005,-0.014 -0.012,-0.015zm-2.098 0.17c0.058,0.009 0.12,0.012 0.186,0.009l-0.029 0.108c-0.081,0.001 -0.104,0.008 -0.18,-0.019 0.004,-0.049 0.004,-0.052 0.025,-0.098l-0.001 0.001 -0.001 -0.001zm0.087 -0.168c0.008,-0.001 0.014,0.005 0.015,0.012 0.001,0.008 -0.005,0.014 -0.012,0.015 -0.008,0.001 -0.014,-0.005 -0.015,-0.012 -0.001,-0.008 0.005,-0.014 0.012,-0.015z"/>
   </g>
   <g id="shoes" style="visibility:hidden;">
    <path id="shoesDark" class="fil12" d="M2.2955 8.21692c-0.009,-0.004 -0.022,-0.009 -0.04,-0.014 -0.071,-0.022 -0.126,-0.043 -0.202,-0.078 -0.092,-0.044 -0.183,-0.109 -0.208,-0.211 -0.016,-0.065 -0.041,-0.051 -0.092,-0.035 -0.039,0.012 -0.092,0.009 -0.133,-0.018 -0.024,0 -0.038,0.021 -0.034,0.042 0.008,0.043 0.009,0.086 0.015,0.134 -0.032,0.063 -0.038,0.129 -0.036,0.196 0.112,0.021 0.2,0.037 0.31,0.077 0.081,0.029 0.153,0.043 0.262,0.043 0.017,-0.08 0.062,-0.119 0.156,-0.136l0.002 0.001 0 -0.001zm-1.957 0.006c0.009,-0.004 0.022,-0.009 0.04,-0.014 0.071,-0.022 0.126,-0.043 0.202,-0.078 0.092,-0.044 0.183,-0.109 0.208,-0.211 0.016,-0.065 0.041,-0.051 0.092,-0.035 0.039,0.012 0.092,0.009 0.133,-0.018 0.024,0 0.038,0.021 0.034,0.042 -0.008,0.043 -0.009,0.086 -0.015,0.134 0.032,0.063 0.038,0.129 0.036,0.196 -0.112,0.021 -0.2,0.037 -0.31,0.077 -0.081,0.029 -0.153,0.043 -0.262,0.043 -0.017,-0.08 -0.062,-0.119 -0.156,-0.136l-0.002 0.001 0 -0.001z"/>
    <path id="shoesLight" class="fil17" d="M2.2955 8.21692c-0.094,0.016 -0.139,0.056 -0.156,0.136 0.027,0 0.056,-0.001 0.083,-0.005 0.054,-0.006 0.094,-0.024 0.122,-0.048 -0.001,-0.035 -0.016,-0.068 -0.049,-0.083zm-1.957 0.006c0.094,0.016 0.139,0.056 0.156,0.136 -0.027,0 -0.056,-0.001 -0.083,-0.005 -0.054,-0.006 -0.094,-0.024 -0.122,-0.048 0.001,-0.035 0.016,-0.068 0.049,-0.083z"/>
    <path id="shoesBase" class="fil16" d="M2.3475 8.31292c-0.066,0.039 -0.121,0.053 -0.186,0.055 -0.079,0.002 -0.143,-0.005 -0.204,-0.021 -0.145,-0.037 -0.235,-0.082 -0.397,-0.11l-0.002 0.049c0.214,0.031 0.384,0.13 0.599,0.137 0.077,0.003 0.141,-0.016 0.19,-0.051l0 -0.06 0 0.001zm-2.061 0.006c0.066,0.039 0.121,0.053 0.186,0.055 0.079,0.002 0.143,-0.005 0.204,-0.021 0.145,-0.037 0.235,-0.082 0.397,-0.11l0.002 0.049c-0.214,0.031 -0.384,0.13 -0.599,0.137 -0.077,0.003 -0.141,-0.016 -0.19,-0.051l0 -0.06 0 0.001z"/>
    <path id="shoesDetail" class="fil18" d="M2.0965 8.18592c-0.024,0.004 -0.026,0.009 -0.056,0.033 -0.017,0.014 -0.026,0 -0.011,-0.026 0.009,-0.016 0.028,-0.026 0.055,-0.033 0.027,-0.007 0.077,0.016 0.013,0.026l-0.001 0zm-1.56 0.006c0.024,0.004 0.026,0.009 0.056,0.033 0.017,0.014 0.026,0 0.011,-0.026 -0.009,-0.016 -0.028,-0.026 -0.055,-0.033 -0.027,-0.007 -0.077,0.016 -0.013,0.026l0.001 0zm0.466 -0.35c0.001,0.004 0.001,0.008 0.001,0.012 0,0.047 -0.039,0.086 -0.086,0.086 -0.047,0 -0.086,-0.039 -0.086,-0.086 0,-0.004 0,-0.008 0.001,-0.012l0.17 0zm-0.255 0.224c0.024,0.005 0.026,0.009 0.055,0.034 0.016,0.014 0.026,0 0.012,-0.026 -0.009,-0.017 -0.028,-0.027 -0.054,-0.034 -0.027,-0.007 -0.077,0.014 -0.013,0.026zm-0.043 0.038c0.024,0.005 0.026,0.009 0.055,0.034 0.016,0.014 0.026,0 0.012,-0.026 -0.009,-0.017 -0.028,-0.027 -0.054,-0.034 -0.027,-0.007 -0.077,0.014 -0.013,0.026zm-0.054 0.032c0.024,0.005 0.026,0.009 0.055,0.034 0.016,0.014 0.026,0 0.012,-0.026 -0.009,-0.017 -0.028,-0.027 -0.054,-0.034 -0.027,-0.007 -0.077,0.014 -0.013,0.026zm-0.057 0.027c0.024,0.005 0.026,0.009 0.055,0.034 0.016,0.014 0.026,0 0.012,-0.026 -0.009,-0.017 -0.028,-0.027 -0.054,-0.034 -0.027,-0.007 -0.077,0.014 -0.013,0.026zm1.208 -0.35c0.001,0.004 0.001,0.009 0.001,0.012 0,0.051 -0.041,0.092 -0.092,0.092 -0.051,0 -0.092,-0.041 -0.092,-0.092 0,-0.005 0,-0.009 0.001,-0.012l0.181 0 0.001 0zm0.084 0.247c-0.024,0.005 -0.026,0.009 -0.055,0.034 -0.016,0.014 -0.026,0 -0.012,-0.026 0.009,-0.017 0.028,-0.027 0.054,-0.034 0.027,-0.007 0.077,0.014 0.013,0.026zm0.043 0.038c-0.024,0.005 -0.026,0.009 -0.055,0.034 -0.016,0.014 -0.026,0 -0.012,-0.026 0.009,-0.017 0.028,-0.027 0.054,-0.034 0.027,-0.007 0.077,0.014 0.013,0.026zm0.054 0.032c-0.024,0.005 -0.026,0.009 -0.055,0.034 -0.016,0.014 -0.026,0 -0.012,-0.026 0.009,-0.017 0.028,-0.027 0.054,-0.034 0.027,-0.007 0.077,0.014 0.013,0.026zm0.057 0.027c-0.024,0.005 -0.026,0.009 -0.055,0.034 -0.016,0.014 -0.026,0 -0.012,-0.026 0.009,-0.017 0.028,-0.027 0.054,-0.034 0.027,-0.007 0.077,0.014 0.013,0.026z"/>
   </g>
</g>-->   
   
   
  <g id="femaleSvg" >
  
   <path id="foot" class="fil20" d="M1.833 7.95301c-0.093,0.025 -0.118,0.018 -0.194,-0.015 0.036,0.123 -0.105,0.209 0.053,0.29 0.087,0.045 0.097,0.182 0.189,0.206 0.074,0.019 0.164,-0.019 0.198,-0.052 0.049,-0.096 -0.281,-0.176 -0.247,-0.428l0.001 -0.001zm-0.785 0.013c-0.074,0.047 -0.128,0.041 -0.196,-0.006 0.031,0.105 -0.069,0.22 -0.141,0.282 -0.031,0.028 -0.231,0.149 0.018,0.19 0.156,0.026 0.162,-0.108 0.234,-0.18 0.045,-0.045 0.091,-0.028 0.107,-0.102 0.015,-0.071 -0.033,-0.1 -0.021,-0.184l-0.001 0z"/>
   <g id="burkha"  style="visibility:hidden;">
    <path id="burkhaLight" class="fil21" d="M0.826 0.900008c0.05,-0.232 0.132,-0.356 0.322,-0.431 0.099,-0.041 0.19,-0.008 0.273,0.033 0.124,0.058 0.223,0.182 0.24,0.348 0.025,0.24 -0.19,0.514 -0.388,0.514 -0.24,0.008 -0.455,-0.248 -0.446,-0.464l-0.001 0zm0.372 1.574l0.091 0c0.058,-0.025 0.116,-0.017 0.264,-0.075 0.074,-0.033 0.174,-0.075 0.231,-0.116 0.132,-0.099 0.05,-0.298 0.24,-0.456 -0.223,-0.05 -0.05,-0.124 -0.165,-0.24 -0.017,-0.008 -0.041,-0.008 -0.066,0.017 -0.025,-0.083 0.008,-0.166 0.008,-0.248 -0.008,-0.116 -0.066,-0.108 -0.066,-0.199 -0.017,-0.149 0.083,-0.273 0.041,-0.456 -0.041,-0.215 -0.066,-0.389 -0.289,-0.505 -0.182,-0.083 -0.314,-0.066 -0.496,0 -0.066,0.025 -0.14,0.083 -0.198,0.199 -0.041,0.075 -0.058,0.141 -0.074,0.232 -0.017,0.141 -0.025,0.133 0,0.282 0.017,0.116 0.066,0.124 0.033,0.257 -0.017,0.091 -0.041,0.182 -0.041,0.273 -0.017,0.356 -0.033,0.224 -0.198,0.422 0,0 0,0 0,0.008l0.041 0.025c0.174,0.116 0.149,0.282 0.207,0.356 0.033,0.041 0.223,0.166 0.306,0.19 0.041,0.017 0.099,0.025 0.132,0.033l-0.001 0.001z"/>
    <path id="burkhaDark" class="fil22" d="M0.826 0.900008c0.033,-0.199 0.182,-0.431 0.388,-0.439 0.24,-0.017 0.421,0.174 0.446,0.389 0.025,-0.141 -0.058,-0.315 -0.099,-0.364 -0.058,-0.075 -0.19,-0.157 -0.339,-0.149 -0.397,0.017 -0.438,0.447 -0.397,0.563l0.001 0z"/>
   </g>
   <path id="face" class="fil23" d="M1.165 1.38101c0.073,0.042 0.221,0.012 0.231,-0.009 0,-0.039 0.027,-0.039 0.055,-0.059 0.071,-0.053 0.113,-0.107 0.155,-0.191 0.043,-0.085 0.101,-0.303 0.058,-0.396 -0.04,-0.145 -0.112,-0.314 -0.228,-0.365 -0.092,-0.04 -0.306,-0.077 -0.401,0.036 -0.191,0.033 -0.161,0.208 -0.255,0.395 0.01,0.201 0.049,0.401 0.215,0.51 0.036,0.024 0.163,0.052 0.171,0.081l-0.001 -0.002z"/>
   <g id="gloves"  style="visibility:hidden;">
    <path id="gloveDark" class="fil12" d="M0.124 4.37001l-0.008 -0.121c0.013,-0.011 0.028,-0.019 0.045,-0.023l0.243 0.015c-0.002,0.071 -0.011,0.099 -0.023,0.136 0.035,0.051 0.066,0.104 0.091,0.159 -0.003,0.039 0.003,0.279 -0.069,0.258 -0.022,-0.007 -0.022,-0.035 -0.022,-0.081l0 -0.085c-0.002,-0.023 -0.009,-0.03 -0.023,-0.015 -0.037,0.057 -0.059,0.123 -0.066,0.198 -0.005,0.052 -0.01,0.057 0.021,0.098 -0.009,0.046 -0.025,0.048 -0.076,0.023 -0.023,0.03 -0.061,0.015 -0.083,-0.03 -0.072,0.004 -0.076,-0.019 -0.106,-0.076 -0.038,-0.023 -0.054,-0.026 -0.046,-0.101 0.016,-0.144 0.02,-0.21 0.122,-0.354l0 -0.001zm2.304 0l0.008 -0.121c-0.013,-0.011 -0.028,-0.019 -0.045,-0.023l-0.243 0.015c0.002,0.071 0.011,0.099 0.023,0.136 -0.035,0.051 -0.066,0.104 -0.091,0.159 0.003,0.039 -0.003,0.279 0.069,0.258 0.022,-0.007 0.022,-0.035 0.022,-0.081l0 -0.085c0.002,-0.023 0.009,-0.03 0.023,-0.015 0.037,0.057 0.059,0.123 0.066,0.198 0.005,0.052 0.01,0.057 -0.021,0.098 0.009,0.046 0.025,0.048 0.076,0.023 0.023,0.03 0.061,0.015 0.083,-0.03 0.072,0.004 0.076,-0.019 0.106,-0.076 0.038,-0.023 0.054,-0.026 0.046,-0.101 -0.016,-0.144 -0.02,-0.21 -0.122,-0.354l0 -0.001z"/>
    <path id="gloveLight" class="fil17" d="M2.462 4.48001c-0.07,0.02 -0.146,0.032 -0.227,0.038l0.049 0.129c0.1,-0.01 0.128,-0.006 0.22,-0.049 -0.011,-0.061 -0.011,-0.064 -0.042,-0.118zm-2.059 -0.216c-0.002,0.031 -0.005,0.053 -0.01,0.072l-0.188 0c-0.02,0 -0.036,-0.016 -0.036,-0.036l0 0c0,-0.02 0.016,-0.036 0.036,-0.036l0.198 0zm-0.314 0.216c0.07,0.02 0.146,0.032 0.227,0.038l-0.049 0.129c-0.1,-0.01 -0.128,-0.006 -0.22,-0.049 0.011,-0.061 0.011,-0.064 0.042,-0.118zm0.119 -0.197c0.009,0 0.017,0.008 0.017,0.017 0,0.009 -0.008,0.017 -0.017,0.017 -0.009,0 -0.017,-0.008 -0.017,-0.017 0,-0.009 0.008,-0.017 0.017,-0.017zm1.939 -0.019c0.002,0.031 0.005,0.053 0.01,0.072l0.188 0c0.02,0 0.036,-0.016 0.036,-0.036l0 0c0,-0.02 -0.016,-0.036 -0.036,-0.036l-0.198 0zm0.194 0.019c-0.009,0 -0.017,0.008 -0.017,0.017 0,0.009 0.008,0.017 0.017,0.017 0.009,0 0.017,-0.008 0.017,-0.017 0,-0.009 -0.008,-0.017 -0.017,-0.017z"/>
   </g>
   <path id="palm" class="fil20" d="M2.242 4.36501c-0.001,0.086 -0.059,0.241 -0.009,0.323 0.026,-0.009 0.03,-0.029 0.041,-0.054l0.028 -0.054c0.001,-0.003 0.003,-0.003 0.004,-0.004 0.082,0.194 -0.045,0.174 -0.03,0.279 0.067,0.012 0.139,-0.126 0.145,-0.222 0.01,-0.157 -0.026,-0.19 -0.054,-0.312l-0.126 0.044 0.001 0zm-1.93 -0.032l-0.127 -0.041c-0.036,0.111 -0.059,0.186 -0.044,0.321 0.01,0.09 0.083,0.211 0.15,0.209 0.008,-0.071 -0.042,-0.088 -0.057,-0.134 -0.017,-0.051 -0.004,-0.12 0.029,-0.146 0.019,0.038 0.029,0.093 0.07,0.111 0.015,-0.048 0.011,-0.12 0.006,-0.176 -0.004,-0.047 -0.027,-0.111 -0.026,-0.145l-0.001 0.001z"/>
   <g id="hairStyle"  >
    <path id="longHair" style="visibility:hidden;"  class="fil19" d="M0.589 1.78401l-0.002 0.054c0.093,-0.007 0.218,-0.041 0.286,-0.081 0.056,-0.033 0.038,-0.052 0.084,-0.093 0.056,-0.049 0.087,-0.023 0.14,-0.045 -0.003,0.051 -0.002,0.077 0.022,0.111 0.083,-0.118 0.059,-0.318 0.043,-0.362 -0.01,-0.009 -0.022,-0.012 -0.035,-0.019 -0.037,-0.017 -0.08,-0.035 -0.118,-0.059 -0.166,-0.109 -0.199,-0.295 -0.209,-0.496 0.081,-0.067 0.171,-0.268 0.238,-0.381 0.149,0.158 0.548,0.303 0.619,0.324 0.043,0.094 -0.006,0.297 -0.048,0.383 -0.042,0.084 -0.084,0.139 -0.155,0.191 -0.028,0.021 -0.055,0.02 -0.055,0.059 0.007,0.132 0.031,0.244 0.09,0.337 0,0 0.006,-0.01 0.01,-0.043 0.002,-0.016 0,-0.032 -0.001,-0.048 0.056,0.002 0.088,0.004 0.112,0.039 0.025,0.036 0.004,0.028 0.081,0.072 0.075,0.043 0.188,0.062 0.242,0.052 -0.053,-0.23 -0.194,-0.251 -0.053,-0.517 0.079,-0.149 0.117,-0.389 0.07,-0.576 -0.08,-0.317 -0.433,-0.601 -0.786,-0.592 -0.046,0.007 -0.098,0.024 -0.132,0.029 -0.158,0.022 -0.187,-0.003 -0.313,0.205 -0.1,0.165 -0.139,0.292 -0.214,0.478 -0.082,0.204 -0.091,0.281 0.066,0.421 0.261,0.232 0.035,0.389 0.019,0.555l-0.001 0.002z"/>
    <path id="shortHair"  class="fil24" d="M0.761 1.50101c0.017,-0.012 0.027,-0.022 0.041,-0.053 0.006,-0.048 -0.021,-0.063 -0.074,-0.089 -0.235,-0.117 -0.26,-0.433 -0.222,-0.667 0.024,-0.145 0.075,-0.271 0.176,-0.37 0.118,-0.114 0.223,-0.197 0.456,-0.227 0.147,-0.021 0.295,0.02 0.471,0.136 0.158,0.105 0.257,0.209 0.346,0.463 0.021,0.081 0.014,0.195 -0.004,0.305 -0.005,0.115 -0.044,0.19 -0.088,0.246 -0.044,0.056 -0.135,0.121 -0.081,0.2 0.008,0.012 0.02,0.024 0.035,0.037 -0.034,0.005 -0.074,-0.003 -0.105,-0.037 -0.013,-0.014 -0.034,-0.021 -0.038,0.009 -0.004,0.026 0.024,0.041 0.05,0.061 -0.082,0.079 -0.176,0.067 -0.312,0.009 -0.008,-0.059 -0.014,-0.119 -0.018,-0.18 0.227,-0.145 0.283,-0.315 0.267,-0.609 -0.237,-0.081 -0.442,-0.139 -0.625,-0.331 -0.076,0.156 -0.138,0.264 -0.242,0.393 0.016,0.116 0.028,0.182 0.045,0.25 0.039,0.15 0.106,0.235 0.326,0.309 0.008,0.062 0.01,0.124 0.004,0.185 -0.047,0.03 -0.09,0.045 -0.131,0.05 -0.064,0.007 -0.127,-0.011 -0.212,-0.038 0.015,-0.015 0.09,-0.088 0.043,-0.106 -0.016,-0.006 -0.022,0.016 -0.029,0.024 -0.026,0.028 -0.039,0.034 -0.081,0.03l0.002 0z"/>
   </g>
   <path id="pant" class="fil25" d="M0.852 7.96001c0.068,0.047 0.122,0.053 0.196,0.006l0.027 -0.019c0.003,-0.316 -0.064,-0.539 -0.015,-0.902 0.02,-0.145 0.031,-0.291 0.034,-0.438 0.002,-0.096 -0.016,-0.389 0,-0.455 0.074,-0.297 0.064,-0.555 0.086,-0.866 0.02,-0.292 0.049,-0.589 0.066,-0.884l0.057 0.038c0.03,0.299 0.046,0.61 0.068,0.91 0.016,0.209 0.019,0.248 0.021,0.459 0.001,0.16 0.031,0.277 0.062,0.425 0.014,0.067 0.01,0.159 0.017,0.231 0.007,0.074 0.016,0.145 0.026,0.217 0.053,0.379 0.155,0.713 0.134,1.077 -0.01,0.185 -0.053,0.1 0.007,0.179 0.076,0.033 0.101,0.039 0.194,0.015l0.027 -0.016c-0.037,-0.251 -0.057,-0.296 -0.039,-0.556 0.014,-0.195 0.022,-0.391 0.016,-0.588 -0.005,-0.168 -0.02,-0.39 -0.075,-0.536 -0.058,-0.156 -0.066,-0.365 -0.047,-0.543 0.013,-0.118 0.083,-0.338 0.118,-0.496 0.044,-0.196 0.154,-0.885 0.151,-1.067 -0.002,-0.123 -0.039,-0.421 -0.088,-0.513 -0.096,0.019 -0.183,0.044 -0.286,0.06 -0.103,0.015 -0.206,0.023 -0.311,0.024 -0.218,0.001 -0.397,-0.027 -0.59,-0.086 -0.06,0.033 -0.111,0.398 -0.117,0.491 -0.014,0.195 -0.005,0.394 0.018,0.584 0.043,0.36 0.085,0.46 0.156,0.764 0.032,0.139 0.043,0.426 0.033,0.57 -0.013,0.187 -0.031,0.157 -0.049,0.256 -0.029,0.157 -0.009,0.405 0.006,0.567 0.022,0.237 0.086,0.633 0.095,0.821 0.003,0.063 -0.012,0.24 0.002,0.274l0 -0.003z"/>
   <path id="arm" class="fil26" d="M0.185 4.34301l0.127 0.041 0.058 0.022c0.015,-0.075 0.022,-0.145 0.041,-0.217 0.018,-0.071 0.04,-0.136 0.06,-0.206 0.04,-0.135 0.073,-0.279 0.102,-0.421 0.031,-0.147 0.056,-0.295 0.077,-0.448 0.011,-0.079 0.035,-0.436 0.05,-0.476 -0.015,-0.054 -0.025,-0.14 -0.038,-0.203 -0.014,-0.064 -0.032,-0.129 -0.051,-0.191 -0.043,-0.137 -0.096,-0.233 -0.173,-0.311 -0.006,0.082 -0.034,0.194 -0.045,0.287 -0.012,0.103 -0.019,0.207 -0.025,0.31 -0.013,0.215 -0.018,0.432 -0.033,0.645 -0.006,0.081 -0.04,0.196 -0.055,0.285 -0.046,0.275 -0.056,0.674 -0.145,0.863l0.05 0.02zm1.673 -1.794c0.013,0.016 0.007,0.003 0.013,0.029 0,0.001 0.002,0.03 0.002,0.032 0.012,0.378 0.117,0.985 0.221,1.333 0.066,0.221 0.06,0.202 0.098,0.401l0.01 0.033 0.041 -0.013 0.126 -0.044 0.065 -0.02c-0.104,-0.306 -0.068,-0.262 -0.105,-0.585 -0.012,-0.101 -0.026,-0.202 -0.043,-0.303 -0.017,-0.101 -0.047,-0.192 -0.053,-0.295 -0.017,-0.303 -0.022,-0.676 -0.064,-0.973 -0.007,-0.05 -0.016,-0.101 -0.027,-0.15 -0.01,-0.04 -0.039,-0.107 -0.041,-0.132 -0.002,-0.002 -0.004,-0.004 -0.005,-0.005 -0.021,-0.02 -0.03,-0.036 -0.047,-0.033 0.051,0.08 -0.079,0.515 -0.143,0.649 -0.024,0.051 -0.017,0.03 -0.041,0.064l-0.006 0.01 -0.001 0.002z"/>
   <path id="neck" class="fil20" d="M1.164 1.37001c0.015,0.145 0.025,0.244 -0.046,0.36 0.055,0.155 0.358,0.125 0.368,-0.026 -0.059,-0.093 -0.082,-0.201 -0.089,-0.333 -0.069,0.019 -0.146,0.053 -0.232,-0.002l-0.001 0.001z"/>
   <g id="facialDetail">
    <g id="lips">
     <path id="Nose" class="fil27" d="M1.322 1.02901c0.001,0.031 -0.038,0.045 -0.062,0.045 -0.025,0 -0.064,-0.014 -0.062,-0.046 0.018,0.02 0.107,0.019 0.125,0.001l-0.001 0z"/>
     <path id="LipsD" class="fil28" d="M1.135 1.15501c0.1,0.109 0.163,0.108 0.257,0.005 -0.097,0.008 -0.16,0.006 -0.257,-0.005z"/>
     <path id="LipsU" class="fil27" d="M1.131 1.14601c0.095,-0.001 0.179,0.001 0.273,0.004 -0.128,0.016 -0.148,0.016 -0.273,-0.004z"/>
    </g>
    <g id="eyes">
     <path id="eyeLash" class="fil29" d="M1.603 0.818008c-0.075,-0.062 -0.177,-0.078 -0.249,0.035 0.104,-0.079 0.161,-0.078 0.249,-0.035zm-0.694 0.004c0.075,-0.062 0.177,-0.078 0.249,0.035 -0.104,-0.079 -0.161,-0.078 -0.249,-0.035z"/>
     <path id="eyeBase" class="fil18" d="M1.589 0.812008c-0.12,-0.058 -0.163,-0.03 -0.231,0.037 0.075,0.039 0.166,0.066 0.231,-0.037zm-0.665 0.004c0.12,-0.058 0.163,-0.03 0.231,0.037 -0.075,0.039 -0.166,0.066 -0.231,-0.037z"/>
     <path id="eyePupil" class="fil30" d="M1.035 0.801008c0.018,0 0.033,0.015 0.033,0.033 0,0.018 -0.015,0.033 -0.033,0.033 -0.018,0 -0.033,-0.015 -0.033,-0.033 0,-0.018 0.015,-0.033 0.033,-0.033zm0.441 -0.004c-0.018,0 -0.033,0.015 -0.033,0.033 0,0.018 0.015,0.033 0.033,0.033 0.018,0 0.033,-0.015 0.033,-0.033 0,-0.018 -0.015,-0.033 -0.033,-0.033z"/>
     <path id="eyeBrow" class="fil31" d="M1.616 0.711008c-0.02,-0.019 -0.049,-0.027 -0.076,-0.029 -0.018,-0.002 -0.037,-0.001 -0.056,0.002 -0.031,0.005 -0.116,0.027 -0.114,0.061 0.019,-0.004 0.106,-0.07 0.246,-0.033l0 -0.001zm-0.733 0.011c0.183,-0.072 0.238,0.036 0.273,0.019 -0.002,-0.026 -0.08,-0.055 -0.122,-0.059 -0.073,-0.007 -0.105,0.018 -0.151,0.04z"/>
    </g>
    <path id="specs"  style="visibility:hidden;" class="fil32" d="M0.845 0.772008l0 0.056c0.024,0.041 0.064,0.178 0.2,0.181 0.16,-0.004 0.176,-0.156 0.192,-0.188 0.024,0.001 0.032,0.001 0.04,0.001 0.042,0.116 0.111,0.166 0.206,0.165 0.104,-0.001 0.148,-0.078 0.187,-0.148l0 -0.056c-0.198,-0.083 -0.239,-0.057 -0.384,0.001 -0.02,0.008 -0.037,0.008 -0.066,0 -0.078,-0.02 -0.134,-0.088 -0.376,-0.013l0.001 0.001zm0.792 0.076c0.023,-0.103 -0.173,-0.115 -0.271,-0.072 -0.039,0.014 -0.052,0.034 -0.05,0.057 0.036,0.148 0.241,0.207 0.321,0.015zm-0.768 0.004c-0.024,-0.112 0.184,-0.12 0.289,-0.072 0.042,0.016 0.055,0.039 0.053,0.063 -0.039,0.159 -0.257,0.219 -0.342,0.009z"/>
   </g>
   <path id="shirt" class="fil33" d="M0.57 1.84101c-0.058,0.012 -0.116,0.052 -0.133,0.091 0.077,0.078 0.13,0.174 0.173,0.311 0.019,0.062 0.037,0.126 0.051,0.191 0.014,0.062 0.023,0.149 0.038,0.203 0.091,0.138 0.13,0.29 0.143,0.489 0.006,0.096 -0.015,0.193 -0.042,0.276 -0.028,0.088 -0.072,0.135 -0.092,0.232 0.193,0.059 0.372,0.088 0.59,0.086 0.105,-0.001 0.208,-0.009 0.311,-0.024 0.104,-0.015 0.191,-0.041 0.286,-0.06 -0.038,-0.236 -0.229,-0.276 -0.075,-0.955 0.01,-0.045 0.032,-0.102 0.036,-0.133l0.006 -0.01c0.024,-0.034 0.017,-0.014 0.041,-0.064 0.063,-0.134 0.193,-0.568 0.143,-0.649 -0.023,-0.01 -0.038,-0.02 -0.064,-0.028 -0.047,-0.015 -0.04,-0.02 -0.079,-0.015 -0.038,0.005 -0.171,-0.028 -0.215,-0.053 -0.077,-0.044 -0.056,-0.037 -0.081,-0.072 -0.024,-0.034 -0.056,-0.037 -0.112,-0.039 0.001,0.016 0.003,0.032 0.001,0.048 -0.025,0.21 -0.417,0.226 -0.4,-0.048 -0.052,0.022 -0.083,-0.004 -0.14,0.045 -0.046,0.041 -0.028,0.059 -0.084,0.093 -0.1,0.06 -0.195,0.062 -0.302,0.085z"/>
   <g id="drivingSuit"  style="visibility:hidden;">
    <path id="drivingLight" class="fil14" d="M1.049 1.50001c-0.024,0.04 -0.024,0.04 -0.032,0.097 0,0.016 -0.089,0.113 -0.113,0.137 -0.113,0.121 -0.444,0.056 -0.468,0.202 0.145,0.121 0.234,0.484 0.258,0.702 0.161,0.177 0.169,0.597 0.113,0.774 -0.032,0.081 -0.081,0.129 -0.097,0.226 0.363,0.121 0.831,0.105 1.194,0 -0.024,-0.097 -0.065,-0.161 -0.097,-0.242 -0.024,-0.081 -0.04,-0.21 -0.04,-0.298 -0.008,-0.121 0.048,-0.492 0.113,-0.556 0.016,-0.048 0.048,-0.097 0.073,-0.153 0.024,-0.073 0.145,-0.5 0.097,-0.556 -0.129,-0.081 -0.226,-0.04 -0.355,-0.105 -0.056,-0.024 -0.113,-0.065 -0.153,-0.105 0.008,-0.04 -0.008,-0.089 -0.032,-0.121 -0.113,0.202 -0.355,0.153 -0.46,0l-0.001 -0.002zm0.048 4.777c0,-0.153 0.024,-0.242 0.048,-0.379 0.016,-0.137 0.024,-0.266 0.032,-0.403 0.008,-0.081 0.056,-0.734 0.073,-0.774 0,0 0.008,0 0.008,0 0,0 0,-0.008 0,-0.008 0.056,0.024 0.048,0.048 0.056,0.137l0.048 0.548c0.016,0.121 0.04,0.677 0.081,0.734 0.032,0.016 0.089,0.065 0.121,0.089 0,-0.081 -0.032,-0.177 -0.032,-0.274 0,-0.097 0,-0.194 0.008,-0.29 0.032,-0.508 0.089,-1.258 0.048,-1.734 -0.024,0 -0.202,0.032 -0.339,0.024 -0.169,-0.008 -0.226,-0.04 -0.306,-0.048 0.008,0.202 0.008,0.419 -0.008,0.621 -0.008,0.218 -0.024,0.387 -0.008,0.605 0.016,0.185 0.056,0.395 0.048,0.581 -0.008,0.21 -0.016,0.411 -0.024,0.621 0.056,-0.032 0.089,-0.081 0.137,-0.113l0.008 0.065 0.001 -0.002z"/>
    <path id="drivingDark" class="fil16" d="M0.863 7.93801c0.097,0.048 0.089,0.048 0.194,0 0.016,-0.032 0.024,-0.008 0.024,-0.073 -0.016,-0.185 -0.048,-0.605 -0.032,-0.742 0.056,-0.452 0.04,-0.427 0.048,-0.847l-0.008 -0.065c-0.048,0.032 -0.081,0.081 -0.137,0.113 0.008,-0.21 0.016,-0.411 0.024,-0.621 0.008,-0.185 -0.032,-0.395 -0.048,-0.581 -0.016,-0.218 0,-0.387 0.008,-0.605 0.016,-0.202 0.016,-0.419 0.008,-0.621 0.081,0.008 0.137,0.04 0.306,0.048 0.137,0.008 0.315,-0.024 0.339,-0.024 0.04,0.476 -0.016,1.226 -0.048,1.734 -0.008,0.097 -0.008,0.194 -0.008,0.29 0,0.097 0.032,0.194 0.032,0.274 -0.032,-0.024 -0.089,-0.073 -0.121,-0.089 0.008,0.032 0.016,0.065 0.016,0.097l0.032 0.355c0.056,0.419 0.161,0.726 0.145,1.121 0,0.032 -0.008,0.065 -0.008,0.089 0,0 -0.008,0.016 -0.008,0.024 -0.016,0.065 -0.008,0.065 0.024,0.089 0.065,0.032 0.113,0.048 0.194,0.016l0.024 -0.008c-0.024,-0.25 -0.065,-0.266 -0.04,-0.556 0.016,-0.194 0.024,-0.395 0.016,-0.589 0,-0.169 -0.016,-0.387 -0.073,-0.532 -0.056,-0.169 -0.065,-0.371 -0.048,-0.548 0.016,-0.169 0.081,-0.323 0.121,-0.492 0.04,-0.21 0.153,-0.887 0.153,-1.073 -0.008,-0.137 -0.04,-0.419 -0.089,-0.524 -0.363,0.105 -0.831,0.121 -1.194,0 -0.016,0.008 0,0 -0.008,0.016 -0.056,0.065 -0.097,0.395 -0.105,0.468 -0.032,0.363 0.024,0.758 0.105,1.105 0.056,0.258 0.081,0.218 0.097,0.516 0.008,0.137 0.008,0.29 -0.008,0.427 -0.008,0.048 -0.024,0.073 -0.032,0.121 -0.089,0.395 0.129,1.226 0.089,1.629 0,0.04 0,0.032 0.016,0.056l0 0.002zm0.178 -6.301c-0.032,0.016 -0.089,0.048 -0.105,0.081 -0.048,0.121 0.194,0.177 0.306,0.185 0,0.548 0.008,0.911 -0.024,1.452 -0.008,0.113 -0.024,0.137 0.056,0.121 0.032,-0.242 0.032,-0.532 0.032,-0.782 0.008,-0.113 -0.008,-0.734 0.016,-0.79 0.097,-0.008 0.177,-0.032 0.234,-0.081 0.097,-0.089 0.024,-0.137 -0.04,-0.169l-0.008 -0.065c-0.024,0.008 -0.073,0.032 -0.105,0.048 -0.169,0.056 -0.25,-0.008 -0.347,-0.056l-0.016 0.056 0.001 0z"/>
   </g>
   <g id="shoes"  style="visibility:hidden;">
    <path id="shoesDark" class="fil12" d="M2.301 8.27601c-0.009,-0.004 -0.021,-0.008 -0.039,-0.013 -0.069,-0.021 -0.123,-0.041 -0.197,-0.077 -0.09,-0.043 -0.179,-0.106 -0.203,-0.206 -0.016,-0.064 -0.04,-0.05 -0.089,-0.034 -0.038,0.012 -0.09,0.008 -0.13,-0.017 -0.024,0 -0.037,0.02 -0.034,0.04 0.007,0.042 0.01,0.084 0.015,0.131 -0.031,0.062 -0.037,0.126 -0.035,0.192 0.11,0.02 0.196,0.036 0.303,0.075 0.079,0.029 0.15,0.043 0.256,0.042 0.017,-0.078 0.061,-0.117 0.153,-0.133zm-1.913 0.005c0.009,-0.004 0.021,-0.008 0.039,-0.013 0.069,-0.021 0.123,-0.041 0.197,-0.077 0.09,-0.043 0.179,-0.106 0.203,-0.206 0.016,-0.064 0.04,-0.05 0.089,-0.034 0.038,0.012 0.09,0.008 0.13,-0.017 0.024,0 0.037,0.02 0.034,0.04 -0.007,0.042 -0.01,0.084 -0.015,0.131 0.031,0.062 0.037,0.126 0.035,0.192 -0.11,0.02 -0.196,0.036 -0.303,0.075 -0.079,0.029 -0.15,0.043 -0.256,0.042 -0.017,-0.078 -0.061,-0.117 -0.153,-0.133z"/>
    <path id="shoesLight" class="fil17" d="M2.301 8.27601c-0.092,0.016 -0.136,0.054 -0.153,0.133 0.027,0 0.054,-0.001 0.081,-0.004 0.052,-0.006 0.092,-0.023 0.119,-0.047 -0.001,-0.034 -0.016,-0.067 -0.048,-0.081l0.001 -0.001zm-1.913 0.005c0.092,0.016 0.136,0.054 0.153,0.133 -0.027,0 -0.054,-0.001 -0.081,-0.004 -0.052,-0.006 -0.092,-0.023 -0.119,-0.047 0.001,-0.034 0.016,-0.067 0.048,-0.081l-0.001 -0.001z"/>
    <path id="shoesBase" class="fil16" d="M2.352 8.37001c-0.064,0.038 -0.118,0.052 -0.182,0.054 -0.077,0.002 -0.139,-0.005 -0.199,-0.02 -0.142,-0.036 -0.23,-0.08 -0.388,-0.107l-0.002 0.048c0.208,0.03 0.375,0.128 0.586,0.134 0.075,0.002 0.137,-0.016 0.185,-0.05l0 -0.059zm-2.016 0.005c0.064,0.038 0.118,0.052 0.182,0.054 0.077,0.002 0.139,-0.005 0.199,-0.02 0.142,-0.036 0.23,-0.08 0.388,-0.107l0.002 0.048c-0.208,0.03 -0.375,0.128 -0.586,0.134 -0.075,0.002 -0.137,-0.016 -0.185,-0.05l0 -0.059z"/>
    <path id="shoesDetail" class="fil18" d="M2.107 8.24501c-0.024,0.004 -0.025,0.008 -0.055,0.032 -0.016,0.013 -0.026,0 -0.012,-0.026 0.009,-0.016 0.028,-0.026 0.054,-0.032 0.027,-0.006 0.075,0.016 0.013,0.026zm-1.526 0.005c0.024,0.004 0.025,0.008 0.055,0.032 0.016,0.013 0.026,0 0.012,-0.026 -0.009,-0.016 -0.028,-0.026 -0.054,-0.032 -0.027,-0.006 -0.075,0.016 -0.013,0.026zm0.456 -0.342c0.001,0.004 0.001,0.008 0.001,0.012 0,0.046 -0.038,0.084 -0.084,0.084 -0.046,0 -0.084,-0.038 -0.084,-0.084 0,-0.004 0,-0.008 0.001,-0.012l0.166 0zm-0.25 0.219c0.023,0.004 0.025,0.009 0.054,0.033 0.016,0.014 0.026,0 0.012,-0.026 -0.008,-0.016 -0.027,-0.027 -0.053,-0.033 -0.027,-0.007 -0.076,0.014 -0.013,0.026zm-0.043 0.037c0.023,0.004 0.025,0.009 0.054,0.033 0.016,0.014 0.026,0 0.012,-0.026 -0.008,-0.016 -0.027,-0.027 -0.053,-0.033 -0.027,-0.007 -0.076,0.014 -0.013,0.026zm-0.053 0.032c0.023,0.004 0.025,0.009 0.054,0.033 0.016,0.014 0.026,0 0.012,-0.026 -0.008,-0.016 -0.027,-0.027 -0.053,-0.033 -0.027,-0.007 -0.076,0.014 -0.013,0.026zm-0.055 0.027c0.023,0.004 0.025,0.009 0.054,0.033 0.016,0.014 0.026,0 0.012,-0.026 -0.008,-0.016 -0.027,-0.027 -0.053,-0.033 -0.027,-0.007 -0.076,0.014 -0.013,0.026zm1.181 -0.341c0.001,0.004 0.001,0.008 0.001,0.012 0,0.05 -0.04,0.09 -0.09,0.09 -0.05,0 -0.09,-0.04 -0.09,-0.09 0,-0.004 0,-0.008 0.001,-0.012l0.178 0zm0.082 0.241c-0.023,0.004 -0.025,0.009 -0.054,0.033 -0.016,0.014 -0.026,0 -0.012,-0.026 0.008,-0.016 0.027,-0.027 0.053,-0.033 0.027,-0.007 0.076,0.014 0.013,0.026zm0.043 0.037c-0.023,0.004 -0.025,0.009 -0.054,0.033 -0.016,0.014 -0.026,0 -0.012,-0.026 0.008,-0.016 0.027,-0.027 0.053,-0.033 0.027,-0.007 0.076,0.014 0.013,0.026zm0.053 0.032c-0.023,0.004 -0.025,0.009 -0.054,0.033 -0.016,0.014 -0.026,0 -0.012,-0.026 0.008,-0.016 0.027,-0.027 0.053,-0.033 0.027,-0.007 0.076,0.014 0.013,0.026zm0.055 0.027c-0.023,0.004 -0.025,0.009 -0.054,0.033 -0.016,0.014 -0.026,0 -0.012,-0.026 0.008,-0.016 0.027,-0.027 0.053,-0.033 0.027,-0.007 0.076,0.014 0.013,0.026z"/>
   </g>
     <g id="Helmet"  style="visibility:hidden;">
    <path id="innerHair" class="fil19" d="M0.87 1.50001c0.026,-0.015 0.054,-0.063 0.079,-0.153 -0.164,-0.096 -0.261,-0.403 -0.262,-0.653 -0.001,-0.146 0.055,-0.271 0.13,-0.37 0.087,-0.114 0.164,-0.197 0.336,-0.227 0.108,-0.021 0.217,0.02 0.347,0.136 0.117,0.105 0.19,0.209 0.255,0.463 0.016,0.081 0.01,0.195 -0.003,0.305 -0.003,0.115 -0.032,0.19 -0.065,0.246 -0.033,0.056 -0.1,0.121 -0.059,0.2 0.006,0.012 0.015,0.024 0.026,0.037 -0.025,0.005 -0.054,-0.003 -0.078,-0.037 -0.01,-0.014 -0.025,-0.021 -0.028,0.009 -0.003,0.026 0.017,0.041 0.037,0.061 -0.06,0.079 -0.081,0.061 -0.181,0.002 -0.006,-0.059 -0.011,-0.119 -0.013,-0.18 0.195,-0.005 0.28,-0.3 0.268,-0.594 -0.175,-0.081 -0.446,-0.147 -0.58,-0.34 -0.056,0.156 -0.228,0.273 -0.305,0.402 0.011,0.116 0.021,0.182 0.033,0.25 0.028,0.15 0.187,0.226 0.35,0.301 0.006,0.062 0.007,0.124 0.003,0.185 -0.035,0.03 -0.049,0.045 -0.079,0.05 -0.047,0.007 -0.094,-0.011 -0.156,-0.038 0.011,-0.015 0.067,-0.088 0.032,-0.106 -0.012,-0.006 -0.017,0.016 -0.022,0.024 -0.019,0.028 -0.033,0.031 -0.064,0.027l-0.001 0z"/>
    <path id="helmateBody" class="fil12" d="M1.266 0.0250079c0.367,0 0.565,0.224 0.587,0.587 -0.237,0.135 -0.888,0.156 -1.165,0.002 0.029,-0.342 0.208,-0.588 0.578,-0.588l0 -0.001zm0.586 0.743c0,0.004 0,0.008 -0.001,0.011 -0.034,0.46 -0.275,0.755 -0.585,0.755 -0.31,0 -0.569,-0.36 -0.582,-0.776 0,-0.009 0,-0.019 -0.001,-0.028 0.061,0.265 0.224,0.452 0.583,0.452 0.348,0 0.518,-0.166 0.586,-0.413l0 -0.001z"/>
    <path id="helmetEye" class="fil1" d="M1.884 0.592008c-0.034,0.342 -0.192,0.59 -0.618,0.59 -0.416,0 -0.568,-0.25 -0.604,-0.584 0.272,0.179 1.011,0.151 1.223,-0.006l-0.001 0zm-1.156 0.098c0.518,0.108 0.586,0.117 1.099,-0.007 -0.052,0.238 -0.154,0.454 -0.566,0.459 -0.303,0.004 -0.538,-0.205 -0.533,-0.452z"/>
    <path id="helmetLight" class="fil14" d="M0.981 1.37301c0.23,0.105 0.34,0.113 0.577,0.001 -0.235,0.171 -0.393,0.141 -0.577,-0.001zm0.152 -1.351c0.03,-0.017 0.066,-0.025 0.108,-0.021l0 0.643 -0.108 0 0 -0.622zm0.297 0c-0.03,-0.017 -0.066,-0.025 -0.108,-0.021l0 0.643 0.108 0 0 -0.622zm-0.609 0.37l0.082 -0.062c-0.001,0.097 0.008,0.118 0.046,0.206 -0.08,-0.05 -0.09,-0.052 -0.129,-0.144l0.001 0zm0.893 0l-0.082 -0.062c0.001,0.097 -0.008,0.118 -0.046,0.206 0.08,-0.05 0.09,-0.052 0.129,-0.144l-0.001 0zm-0.734 0.801c0.23,0.105 0.34,0.113 0.577,0.001 -0.235,0.171 -0.393,0.141 -0.577,-0.001zm0 0.103c0.23,0.105 0.34,0.113 0.577,0.001 -0.235,0.171 -0.393,0.141 -0.577,-0.001z"/>
   </g>
</g>

</svg>
